<?xml version="1.0" standalone="no"?>
<!DOCTYPE svg PUBLIC "-//W3C//DTD SVG 20010904//EN"
 "http://www.w3.org/TR/2001/REC-SVG-20010904/DTD/svg10.dtd">
<svg version="1.0" xmlns="http://www.w3.org/2000/svg"
 width="500.000000pt" height="500.000000pt" viewBox="0 0 500.000000 500.000000"
 preserveAspectRatio="xMidYMid meet">

<g transform="translate(0.000000,500.000000) scale(0.100000,-0.100000)"
fill="#000000" stroke="none">
<path d="M3765 4523 c-97 -25 -451 -198 -563 -275 -42 -29 -113 -88 -159 -130
-45 -43 -88 -76 -95 -73 -34 11 -335 45 -406 45 -45 0 -153 -9 -242 -21 l-162
-20 -51 48 c-135 127 -268 219 -446 307 -140 71 -261 116 -308 116 -54 0 -105
-56 -132 -145 -60 -194 -44 -477 39 -698 32 -85 53 -104 138 -126 l74 -18 -54
-63 c-107 -127 -128 -155 -128 -177 0 -23 7 -27 48 -23 12 1 22 -3 22 -9 0
-16 -115 -98 -192 -137 -70 -35 -90 -63 -66 -91 8 -10 9 -18 3 -20 -5 -2 -25
-12 -42 -23 -47 -28 -46 -70 2 -93 20 -9 45 -17 55 -17 26 0 26 -16 0 -23 -21
-5 -25 -23 -12 -45 5 -7 54 -32 110 -57 117 -51 196 -99 381 -237 73 -55 178
-129 233 -165 55 -35 98 -70 95 -76 -20 -54 -100 -275 -103 -284 -2 -7 -10
-10 -19 -7 -16 7 -194 205 -241 269 -60 83 -89 115 -105 115 -19 0 -84 -68
-101 -106 -6 -13 -14 -24 -18 -24 -15 0 -58 58 -68 95 -7 22 -40 96 -74 165
-56 111 -66 125 -91 128 -36 4 -132 -40 -147 -68 -12 -22 -9 -77 5 -112 6 -15
2 -18 -22 -18 -36 0 -99 -34 -152 -82 -37 -33 -41 -41 -41 -83 0 -82 38 -145
127 -206 29 -20 53 -51 82 -105 l41 -76 -27 -71 c-14 -40 -27 -92 -27 -117
l-1 -45 105 -55 c120 -64 258 -151 313 -199 34 -30 37 -38 37 -85 0 -89 62
-188 133 -215 40 -15 80 -14 128 5 l41 17 80 -81 c44 -44 92 -86 107 -92 23
-9 30 -22 45 -88 10 -42 32 -103 49 -134 l32 -57 -51 -53 c-61 -64 -87 -105
-80 -124 9 -22 538 -16 560 6 8 8 25 58 38 110 l24 95 36 3 c35 3 37 1 47 -35
5 -21 18 -69 28 -106 11 -44 24 -72 36 -79 12 -6 146 -8 371 -6 345 5 353 5
456 33 123 32 161 50 252 117 116 85 232 228 309 380 38 77 47 108 30 108 -5
0 -33 -11 -62 -24 -116 -50 -322 -86 -503 -86 l-120 0 31 33 c73 77 74 184 5
422 -39 133 -71 208 -130 307 -27 46 -59 101 -70 123 l-20 40 29 35 c16 19 29
44 29 56 0 30 -25 88 -67 152 -50 79 -49 100 7 130 98 53 198 117 307 198 160
119 279 196 354 228 35 15 98 42 139 59 57 25 75 37 75 52 0 13 -8 21 -22 23
-36 5 -27 19 21 31 48 12 76 33 76 57 0 20 -45 64 -65 64 -18 0 -19 5 -5 29
14 28 -7 49 -83 81 -69 29 -177 102 -196 132 -10 15 -7 17 17 12 35 -7 57 16
48 49 -3 14 -46 68 -96 121 -49 54 -90 101 -90 105 0 5 22 11 48 14 26 3 66
13 89 22 38 15 43 22 73 97 97 247 118 549 49 734 -31 82 -97 132 -154 117z
m-2290 -92 c44 -21 96 -52 115 -70 39 -35 190 -134 190 -124 0 3 -12 22 -27
41 -15 20 -20 32 -12 27 42 -25 228 -168 253 -194 l29 -30 -24 -9 c-20 -8 -29
-4 -58 26 -25 25 -36 31 -39 21 -3 -8 -11 -17 -18 -22 -10 -6 -9 -16 6 -49 10
-24 17 -44 15 -46 -4 -4 -110 107 -132 138 -16 22 -109 99 -98 80 5 -8 21 -31
35 -50 127 -166 142 -198 98 -202 -13 0 -30 0 -38 1 -8 2 -26 4 -40 5 -14 2
-25 9 -26 17 0 8 -2 19 -2 24 -1 6 -20 21 -43 35 -22 14 -69 61 -104 105 -66
84 -210 229 -182 184 23 -37 9 -44 -25 -13 -21 21 -29 24 -32 13 -44 -123 -31
-430 25 -571 10 -27 19 -55 19 -63 0 -27 -17 -15 -35 25 -10 22 -22 37 -26 34
-5 -3 -6 2 -3 10 3 9 1 16 -5 16 -6 0 -11 -5 -11 -11 0 -8 -4 -8 -14 0 -23 19
-41 158 -41 321 1 201 25 308 81 365 23 23 67 14 169 -34z m2366 19 c48 -65
71 -288 50 -479 -16 -149 -18 -154 -52 -149 -25 4 -28 2 -23 -14 3 -10 1 -18
-4 -18 -5 0 -15 -18 -22 -40 -7 -21 -17 -37 -21 -34 -10 6 -7 17 27 134 26 88
29 108 29 265 0 94 -4 187 -8 209 l-8 38 -30 -28 c-29 -28 -53 -28 -29 1 7 8
10 15 8 15 -13 0 -110 -107 -177 -194 -40 -53 -78 -96 -84 -96 -17 0 -57 -42
-57 -60 0 -25 21 -42 37 -29 14 12 18 1 5 -17 -9 -13 -71 -38 -78 -31 -3 3 7
13 23 22 15 9 21 14 13 12 -8 -2 -21 2 -28 9 -10 10 -18 11 -38 2 -20 -9 -27
-9 -33 1 -6 8 -17 11 -31 6 -20 -6 -21 -4 -15 17 9 26 90 154 104 163 6 3 20
20 33 38 l23 32 -31 -22 c-17 -12 -68 -61 -112 -108 -44 -47 -83 -85 -85 -85
-3 0 0 18 5 40 8 29 7 44 -2 55 -6 8 -8 20 -4 27 14 23 -53 -32 -70 -57 -15
-23 -17 -24 -36 -8 -19 17 -19 17 3 41 40 43 181 149 236 176 l54 28 -22 -30
c-26 -37 -27 -46 -2 -33 29 16 106 83 104 91 -2 7 162 88 247 122 57 22 78 20
101 -12z m-2471 -206 c0 -37 53 -191 95 -274 19 -38 33 -70 30 -70 -3 0 -23 9
-45 20 -22 11 -44 20 -49 20 -15 0 12 -69 57 -143 l40 -66 -24 -16 c-76 -49
-145 133 -148 391 -1 98 2 135 13 147 20 24 31 21 31 -9z m2416 0 c14 -21 16
-41 11 -127 -12 -192 -57 -348 -117 -402 -19 -17 -21 -17 -40 0 -19 17 -19 18
12 74 17 31 34 61 39 67 5 6 16 28 24 49 13 29 13 36 3 32 -7 -3 -30 -12 -50
-21 l-37 -16 13 25 c7 14 35 97 62 185 27 88 52 160 56 160 4 0 15 -11 24 -26z
m-1081 -204 c148 -14 272 -43 351 -80 36 -18 64 -33 62 -35 -2 -2 -32 3 -68
11 -114 25 -117 26 -97 14 21 -13 22 -53 2 -70 -17 -14 -20 -50 -5 -50 6 0 10
-11 10 -24 0 -14 5 -28 11 -31 7 -5 4 -15 -7 -32 l-16 -26 25 19 c14 11 24 23
24 28 -1 4 9 10 22 12 23 4 24 3 8 -14 -10 -10 -14 -22 -10 -26 5 -4 3 -7 -2
-6 -20 4 -35 0 -35 -11 0 -5 4 -8 9 -5 4 3 13 -6 19 -19 9 -20 8 -26 -6 -35
-17 -12 -16 -12 38 5 24 7 24 7 8 -12 -10 -11 -18 -25 -18 -32 0 -7 -5 -9 -12
-5 -7 4 -8 3 -4 -4 4 -6 14 -8 23 -5 11 4 14 3 9 -5 -4 -7 -14 -12 -22 -12 -8
0 -14 -4 -14 -8 0 -5 30 0 68 9 64 17 284 27 269 13 -3 -3 -36 -12 -72 -20
-72 -15 -116 -33 -82 -34 25 0 144 -63 194 -102 23 -18 95 -76 160 -130 163
-133 345 -242 441 -263 60 -13 30 -23 -138 -49 -25 -4 61 -37 110 -42 95 -11
115 -15 100 -24 -12 -7 -168 -40 -186 -40 -3 0 3 -11 11 -24 16 -24 16 -24 -7
-19 -35 8 -388 183 -388 193 0 4 19 4 41 -1 61 -14 57 -5 -10 25 -36 16 -76
26 -105 26 -40 0 -46 3 -46 21 0 19 5 21 40 17 35 -3 38 -2 25 11 -15 16 -170
102 -265 149 -81 39 -169 38 -236 -4 l-49 -30 0 25 c0 15 4 33 9 41 5 8 -3 4
-18 -10 -41 -37 -88 -114 -125 -208 -41 -102 -84 -275 -66 -269 8 4 11 -8 11
-35 l-1 -41 140 -83 c193 -115 196 -117 276 -202 67 -70 71 -76 53 -89 -16
-11 -19 -11 -28 4 -6 10 -11 26 -12 36 -3 36 -4 38 -16 31 -6 -4 -8 -3 -5 3 4
6 -2 18 -12 27 -16 15 -19 15 -31 1 -7 -8 -9 -15 -4 -15 5 0 1 -5 -8 -11 -10
-5 -18 -15 -18 -20 0 -6 4 -8 8 -5 5 3 9 -2 9 -10 0 -9 -4 -11 -9 -6 -6 6 -36
-17 -76 -55 -37 -35 -77 -66 -89 -69 -13 -4 -23 -10 -23 -16 0 -5 -4 -7 -9 -4
-5 3 -21 -1 -37 -8 -80 -39 -361 -46 -485 -12 -30 8 -62 16 -70 18 -8 2 -16 5
-19 8 -3 3 -22 18 -42 33 -37 27 -47 27 -28 -3 6 -9 5 -17 -3 -22 -17 -11 -59
-10 -53 1 3 5 -1 14 -9 21 -9 7 -14 26 -12 48 1 28 -2 36 -13 34 -8 -2 -12 -1
-8 3 4 4 -7 32 -24 62 -26 46 -29 57 -17 68 22 21 261 177 319 208 l53 28 -7
57 c-9 78 -61 253 -97 329 -39 82 -130 159 -198 169 -88 13 -199 -33 -421
-175 -11 -8 -7 -10 18 -10 59 -1 36 -35 -31 -44 -26 -4 -64 -16 -85 -27 l-37
-21 38 5 c21 3 35 1 32 -4 -17 -27 -340 -200 -373 -200 -13 0 -12 3 1 18 28
31 20 40 -40 47 -32 4 -76 12 -98 18 l-40 11 60 8 c68 10 174 38 180 48 3 4
-25 10 -62 13 -36 4 -77 14 -92 24 l-26 17 45 11 c76 20 266 141 364 232 131
122 280 225 355 244 28 7 51 16 51 20 0 4 -33 13 -72 20 -40 6 -77 16 -83 21
-12 11 159 10 208 -1 24 -6 39 -5 44 2 4 6 1 7 -8 2 -8 -4 -5 1 6 12 11 11 23
19 27 17 3 -2 5 4 4 13 -2 9 -8 19 -14 21 -7 2 -12 8 -12 13 0 6 7 6 19 0 14
-8 22 -6 35 8 18 20 22 66 6 76 -5 3 -10 11 -10 18 0 8 3 8 11 0 9 -9 18 -8
35 4 20 13 24 24 24 63 0 26 -6 59 -13 73 -12 22 -18 24 -62 21 l-50 -4 29 16
c134 74 396 108 651 84z m-1045 -45 c35 -18 40 -29 9 -20 -35 12 -13 -10 31
-30 22 -10 40 -22 40 -27 0 -11 -4 -10 -48 7 -27 11 -44 27 -55 50 -19 40 -17
41 23 20z m1848 3 c-2 -6 -17 -13 -34 -14 l-29 -3 30 14 c37 18 38 18 33 3z
m350 -213 c-3 -3 -9 2 -12 12 -6 14 -5 15 5 6 7 -7 10 -15 7 -18z m-2553 -56
c-5 -15 -4 -19 4 -15 6 4 12 4 12 -1 1 -4 3 -21 5 -38 2 -16 11 -35 20 -42 10
-7 13 -13 7 -13 -16 0 -44 30 -38 40 3 5 1 10 -5 12 -5 1 -14 18 -19 36 -6 20
-6 30 0 27 5 -4 9 -1 9 4 0 6 3 11 6 11 3 0 2 -10 -1 -21z m611 -608 c-20 -21
-44 -56 -51 -77 -8 -22 -14 -31 -15 -22 0 32 21 71 56 105 49 46 57 42 10 -6z
m231 14 c31 -22 51 -89 32 -111 -20 -24 -84 -12 -120 22 -31 29 -38 71 -17 92
17 17 79 15 105 -3z m1027 -16 c44 -52 31 -109 -25 -109 -57 0 -112 86 -79
125 22 27 75 19 104 -16z m-264 -214 c19 -19 32 -35 29 -35 -3 0 -20 16 -39
35 -19 19 -32 35 -29 35 3 0 20 -16 39 -35z m310 8 c-7 -10 -24 -27 -38 -37
-22 -17 -21 -13 8 20 36 42 50 50 30 17z m-245 -61 c-3 -3 -11 0 -18 7 -9 10
-8 11 6 5 10 -3 15 -9 12 -12z m72 -18 c-3 -3 -12 -4 -19 -1 -8 3 -5 6 6 6 11
1 17 -2 13 -5z m56 -1 c-7 -2 -19 -2 -25 0 -7 3 -2 5 12 5 14 0 19 -2 13 -5z
m-1967 -320 c16 -38 39 -86 51 -108 30 -52 29 -60 -5 -60 -21 0 -28 4 -25 15
2 8 -21 56 -50 107 -39 66 -52 94 -44 102 26 26 45 11 73 -56z m-112 11 c4
-10 -1 -22 -11 -29 -30 -22 -45 2 -20 30 16 19 24 18 31 -1z m944 -61 c-18
-43 -31 -58 -51 -59 -15 -2 -16 1 -5 15 17 22 61 71 65 71 1 0 -3 -12 -9 -27z
m-958 -100 c25 -13 59 -35 75 -48 l30 -24 -39 -40 c-39 -40 -40 -41 -65 -24
-14 9 -46 34 -71 54 -25 21 -56 47 -70 57 l-24 20 34 21 c39 23 62 21 130 -16z
m1959 0 c-5 -30 24 -46 45 -25 4 4 20 8 34 8 42 3 44 3 37 14 -3 6 -4 10 -1
10 3 0 7 -4 10 -9 4 -5 -32 -30 -78 -55 -86 -47 -124 -53 -150 -25 -8 9 -6 9
12 0 21 -11 27 -6 24 21 -2 11 27 17 34 6 4 -7 9 -6 15 3 13 21 11 41 -3 33
-9 -5 -9 -2 1 9 14 18 22 22 20 10z m-902 -31 c0 -10 -6 -19 -13 -19 -9 0 -9
5 -1 19 7 10 13 18 14 18 1 0 1 -8 0 -18z m-577 -47 c0 -7 -6 -18 -13 -24 -11
-8 -17 -5 -27 13 -7 14 -10 32 -6 42 6 16 8 16 26 -1 11 -10 20 -24 20 -30z
m-280 -13 c0 -4 -28 -35 -62 -69 -49 -48 -66 -60 -78 -53 -12 8 -4 21 47 70
54 53 93 75 93 52z m351 -79 c26 -42 21 -50 -15 -22 -31 25 -49 55 -41 70 9
13 29 -4 56 -48z m-151 -88 c202 -165 379 -327 374 -339 -8 -20 -58 -25 -101
-10 -20 7 -65 41 -102 78 -36 36 -94 87 -128 113 -34 26 -92 75 -130 108 -37
33 -82 70 -98 82 -25 18 -28 25 -18 40 6 10 17 17 25 15 7 -2 10 0 6 4 -4 4
-3 13 3 20 13 15 28 5 169 -111z m71 -237 c58 -54 60 -58 24 -37 -22 12 -67
44 -101 70 -33 26 -76 55 -95 64 -35 18 -96 65 -84 65 3 0 -1 10 -9 22 -9 12
-16 30 -16 40 0 18 157 -107 281 -224z m622 183 c32 -11 75 -34 96 -50 l38
-30 -12 -63 c-6 -35 -15 -61 -19 -60 -5 2 -12 -1 -15 -6 -4 -6 -36 17 -74 52
-37 34 -67 61 -67 59 0 -3 -26 14 -58 36 -32 23 -61 41 -65 41 -4 0 -12 -11
-17 -25 -10 -26 -24 -32 -34 -16 -14 22 14 60 51 70 79 22 92 21 176 -8z
m1032 5 c40 -17 60 -47 43 -64 -14 -14 -38 -16 -38 -4 0 5 -6 16 -13 26 -13
17 -15 17 -45 2 -59 -30 -117 -75 -172 -130 -30 -31 -57 -56 -61 -56 -16 0
-28 97 -20 160 2 10 61 41 114 60 63 22 146 25 192 6z m-1889 -79 c39 -29 111
-83 159 -122 195 -155 247 -195 256 -195 5 0 9 -7 9 -15 0 -8 -3 -15 -7 -15
-8 0 -66 45 -118 91 -17 15 -58 49 -92 75 -34 27 -97 77 -140 111 -43 35 -95
76 -117 93 -64 50 -26 33 50 -23z m809 -48 c52 -39 134 -119 122 -119 -3 0
-30 20 -60 44 -76 62 -149 112 -175 120 -22 7 -27 17 -15 29 7 8 59 -22 128
-74z m1065 66 c0 -8 -15 -22 -32 -31 -47 -24 -149 -98 -177 -128 -14 -14 -29
-26 -35 -26 -19 0 108 120 169 161 66 43 75 46 75 24z m-603 -32 c-3 -10 -5
-4 -5 12 0 17 2 24 5 18 2 -7 2 -21 0 -30z m0 -110 c-3 -10 -5 -4 -5 12 0 17
2 24 5 18 2 -7 2 -21 0 -30z m216 15 c5 -16 -29 -63 -60 -83 -34 -23 -30 4 7
46 16 19 30 37 30 42 0 12 18 8 23 -5z m-1638 -64 c57 -52 58 -54 17 -29 -23
14 -55 28 -71 31 -23 5 -27 10 -23 30 2 13 7 24 11 24 3 0 33 -25 66 -56z
m1165 -20 c-12 -57 -19 -58 -34 -8 -6 20 30 82 41 70 3 -2 -1 -30 -7 -62z
m549 11 c1 -17 -1 -17 -9 -5 -5 8 -9 26 -9 40 0 23 1 23 9 5 5 -11 9 -29 9
-40z m-29 -79 c-4 -12 -23 -34 -41 -51 l-33 -30 32 40 c51 64 37 61 -24 -4
-31 -34 -59 -61 -63 -61 -4 0 -13 23 -20 52 l-14 52 69 61 68 62 17 -50 c11
-32 14 -58 9 -71z m-456 85 c108 -96 108 -95 101 -124 -4 -15 -10 -25 -14 -22
-4 2 -7 -6 -7 -18 1 -12 -4 -22 -10 -22 -21 0 -124 98 -120 114 2 9 7 33 11
54 7 43 9 44 39 18z m212 -31 c8 0 13 4 9 9 -3 5 0 13 6 16 21 14 20 -4 -2
-35 -21 -27 -24 -29 -31 -13 -3 10 -6 32 -6 48 1 30 1 30 5 3 3 -16 11 -28 19
-28z m311 18 c-3 -8 -6 -5 -6 6 -1 11 2 17 5 13 3 -3 4 -12 1 -19z m-1797 -59
c0 -5 -7 -9 -15 -9 -15 0 -20 12 -9 23 8 8 24 -1 24 -14z m-40 -39 c0 -11 -4
-20 -9 -20 -17 0 -41 12 -41 21 0 4 7 6 15 3 8 -4 15 -1 15 5 0 6 5 11 10 11
6 0 10 -9 10 -20z m1110 -11 c0 -6 -4 -7 -10 -4 -5 3 -10 11 -10 16 0 6 5 7
10 4 6 -3 10 -11 10 -16z m0 -23 c0 -3 -4 -8 -10 -11 -5 -3 -10 -1 -10 4 0 6
5 11 10 11 6 0 10 -2 10 -4z m1153 -9 c3 -8 -1 -14 -8 -14 -7 0 -11 6 -8 14 3
7 6 13 8 13 2 0 5 -6 8 -13z m-1814 -130 c5 -15 -82 50 -116 85 -18 19 -3 11
42 -22 39 -29 72 -57 74 -63z m1410 46 c1 -37 4 -70 7 -75 3 -4 -7 -10 -21
-14 -14 -4 -25 -13 -25 -23 0 -32 32 -111 42 -105 6 4 8 -1 3 -15 -3 -12 -2
-21 4 -21 5 0 13 10 17 22 l6 21 13 -24 c15 -27 4 -40 -26 -32 -13 4 -19 0
-19 -11 0 -10 4 -15 8 -12 4 2 6 -11 4 -30 -5 -38 -22 -37 -22 2 l0 25 -97 -5
c-54 -4 -149 -9 -212 -12 -91 -4 -117 -9 -128 -22 -11 -16 -12 -15 -13 4 0 18
-7 21 -47 23 -27 2 -79 6 -118 10 l-70 8 70 3 70 2 -47 8 c-26 5 -52 11 -59
15 -15 10 -5 129 16 179 15 36 15 39 -10 83 -13 25 -19 40 -11 34 8 -7 21 -27
30 -45 13 -29 14 -38 1 -81 -20 -66 -22 -134 -4 -146 8 -5 54 -8 103 -7 l89 3
47 145 47 145 15 -36 c9 -20 23 -62 33 -94 25 -88 56 -167 63 -161 3 3 13 -7
22 -22 15 -25 22 -28 56 -23 22 3 30 6 19 8 -53 10 -65 14 -60 23 3 6 39 10
80 10 57 0 76 4 83 16 5 9 1 58 -11 127 l-19 112 33 27 c18 16 34 28 35 28 0
0 2 -30 3 -67z m439 0 c13 -44 12 -46 -19 -34 -13 5 -18 10 -11 10 9 1 10 6 2
20 -14 27 -13 41 3 41 8 0 19 -17 25 -37z m-1659 -17 c-7 -14 -17 -22 -25 -19
-19 7 -18 20 4 32 27 16 32 13 21 -13z m69 0 c15 -7 41 -18 57 -22 28 -9 30
-13 33 -64 1 -34 -1 -50 -6 -42 -5 8 -12 13 -16 13 -22 -3 -26 4 -27 47 -1 31
-3 40 -7 26 -7 -21 -8 -21 -44 -7 -35 14 -49 39 -31 56 9 9 11 9 41 -7z m1051
-103 c-12 -14 -49 -18 -49 -5 0 4 8 18 18 30 15 20 18 20 29 5 9 -12 10 -20 2
-30z m576 5 c10 -31 10 -41 -2 -58 -20 -29 -27 -26 -51 28 -27 60 -27 60 1 65
34 6 38 4 52 -35z m1 -140 c4 -7 3 -8 -4 -4 -7 4 -12 2 -12 -3 0 -6 7 -11 15
-11 9 0 19 -8 22 -17 6 -15 8 -14 15 7 6 20 7 18 3 -9 -3 -18 -5 -46 -5 -61 0
-16 -7 -30 -16 -34 -8 -3 -12 -2 -9 4 3 5 -3 35 -14 66 -11 31 -18 61 -15 65
7 12 11 11 20 -3z m-1177 -33 c-1 -5 -5 -21 -9 -35 -8 -24 -8 -24 -9 7 -1 17
-7 33 -13 36 -7 3 -3 4 10 4 12 -1 22 -6 21 -12z m775 0 c3 -9 0 -15 -8 -15
-7 0 -13 7 -13 15 0 8 4 15 8 15 4 0 9 -7 13 -15z m-305 -141 c9 -3 11 -8 5
-14 -13 -13 -5 -172 8 -164 8 5 9 -1 5 -17 -4 -13 -7 -26 -7 -29 0 -9 -203 1
-221 11 -26 13 -33 134 -11 179 15 31 22 36 62 40 48 5 136 2 159 -6z m-873
-15 c10 -12 43 -39 72 -61 28 -21 52 -45 52 -53 0 -13 -25 7 -123 98 -23 20
-36 37 -31 37 6 0 19 -10 30 -21z m891 -71 c-2 -13 -4 -3 -4 22 0 25 2 35 4
23 2 -13 2 -33 0 -45z m151 -47 c2 -6 18 -11 35 -12 24 0 27 -2 14 -8 -23 -9
-148 20 -140 32 7 12 87 1 91 -12z m1047 -20 c-7 -13 -123 -101 -141 -108 -8
-3 -14 -10 -14 -17 -1 -11 -160 -70 -168 -61 -3 2 -7 36 -10 75 -4 64 -3 70
14 70 42 1 251 30 279 39 40 12 47 13 40 2z m-477 -37 c18 -4 22 -9 17 -22 -4
-9 -12 -47 -18 -84 l-11 -67 -51 -25 c-95 -47 -95 -47 -95 26 1 65 15 119 44
162 16 25 32 27 114 10z m-1235 -361 c-7 -2 -21 -2 -30 0 -10 3 -4 5 12 5 17
0 24 -2 18 -5z m810 0 c-18 -2 -48 -2 -65 0 -18 2 -4 4 32 4 36 0 50 -2 33 -4z
m316 -33 c58 -5 107 -13 110 -16 8 -9 -209 2 -231 11 -10 4 -18 11 -18 17 0 5
8 7 18 4 9 -3 64 -10 121 -16z"/>
<path d="M3239 4163 c-13 -16 -12 -17 4 -4 16 13 21 21 13 21 -2 0 -10 -8 -17
-17z"/>
<path d="M2115 3731 c-3 -5 -2 -12 3 -15 5 -3 9 1 9 9 0 17 -3 19 -12 6z"/>
<path d="M2420 3680 c0 -5 -13 -7 -30 -4 -61 13 -62 -3 -9 -158 52 -152 74
-236 66 -244 -3 -3 -14 19 -26 48 -26 70 -27 41 -2 -139 11 -76 25 -181 31
-233 6 -52 13 -111 16 -131 5 -33 3 -37 -26 -49 -41 -17 -80 -84 -80 -138 0
-105 155 -178 271 -128 73 31 121 116 105 182 -11 41 -59 83 -103 90 l-39 6
12 111 c15 135 29 219 54 312 10 39 21 90 24 115 l5 45 -19 -40 c-10 -22 -19
-33 -19 -24 -1 21 85 323 100 351 9 16 8 19 -3 12 -19 -12 -37 -14 -44 -3 -3
5 -59 9 -125 9 -73 0 -119 4 -119 10 0 6 -9 10 -20 10 -11 0 -20 -4 -20 -10z
m197 -941 c34 -13 45 -29 31 -46 -14 -17 -39 -16 -63 1 -16 11 -17 17 -7 29
10 12 10 16 0 20 -26 11 11 7 39 -4z"/>
<path d="M2290 3201 c0 -6 4 -13 10 -16 6 -3 7 1 4 9 -7 18 -14 21 -14 7z"/>
<path d="M2191 2519 c-22 -39 -22 -40 -4 -71 48 -83 265 -142 433 -118 80 11
191 58 233 98 22 21 30 24 36 13 7 -11 13 -7 25 17 18 35 14 52 -15 70 -18 11
-24 11 -38 -2 -10 -9 -42 -30 -72 -46 -30 -17 -43 -28 -29 -24 14 3 39 15 56
25 48 29 61 23 28 -12 -90 -95 -303 -129 -486 -79 -82 23 -128 48 -128 72 0
22 27 23 54 3 11 -8 24 -15 29 -15 6 0 -5 10 -24 23 -18 12 -43 37 -55 54
l-21 32 -22 -40z"/>
<path d="M2340 2440 c8 -5 22 -9 30 -9 10 0 8 3 -5 9 -27 12 -43 12 -25 0z"/>
<path d="M2398 2423 c6 -2 18 -2 25 0 6 3 1 5 -13 5 -14 0 -19 -2 -12 -5z"/>
<path d="M2100 2382 c0 -7 5 -12 10 -12 6 0 10 -5 10 -11 0 -5 -4 -7 -10 -4
-6 4 -7 -1 -3 -11 5 -15 7 -15 16 1 6 12 5 22 -7 33 -10 11 -16 12 -16 4z"/>
<path d="M2130 2310 c0 -5 5 -10 10 -10 6 0 10 5 10 10 0 6 -4 10 -10 10 -5 0
-10 -4 -10 -10z"/>
<path d="M2831 1909 c-1 -8 6 -24 15 -35 15 -19 15 -19 6 1 -5 11 -12 27 -15
35 -5 13 -6 13 -6 -1z"/>
<path d="M2800 1290 c-24 -8 -24 -8 5 -9 17 0 37 4 45 9 12 8 11 10 -5 9 -11
-1 -31 -5 -45 -9z"/>
<path d="M2451 1096 c-9 -11 -11 -33 -6 -81 l7 -65 74 0 74 0 0 69 c0 39 -3
72 -7 74 -5 3 -35 8 -69 12 -48 5 -63 3 -73 -9z"/>
</g>
</svg>
